<?xml version="1.0" encoding="utf-8"?>
<svg version="1.1" id="Слой_1" xmlns="http://www.w3.org/2000/svg" xmlns:xlink="http://www.w3.org/1999/xlink" x="0px" y="0px"
	 viewBox="0 0 64 64" style="enable-background:new 0 0 204 64;" xml:space="preserve">
<style type="text/css">
	.st0{fill:#EB5C1F;}
	.st1{fill:#7D338A;}
	.st2{fill:#FFFFFF;}
	.st3{fill:#1E1E1C;}
</style>
<g>
	<g>
		<rect x="-0.1" y="48.6" transform="matrix(0.7071 -0.7071 0.7071 0.7071 -33.9858 15.1864)" class="st0" width="2.8" height="0"/>
		<path class="st0" d="M62,47.4H49.6v-43L4.3,49.6h44.1l12.9,12.9c0.2,0.2,0.4,0.2,0.6,0.2c0.1,0,0.2,0,0.3-0.1
			c0.3-0.1,0.5-0.4,0.5-0.8V48.2C62.8,47.8,62.4,47.4,62,47.4z"/>
		<rect x="47.2" y="1.3" class="st0" width="2.8" height="0"/>
		<rect x="49.2" y="3.3" transform="matrix(0.7071 -0.7071 0.7071 0.7071 12.4619 36.7773)" class="st1" width="2.8" height="0"/>
		<polygon class="st1" points="2.3,2.3 2.3,47.6 47.6,2.3 		"/>
		<rect x="1.9" y="50.6" class="st1" width="2.8" height="0"/>
		<rect x="25" y="-7" class="st1" width="0" height="64"/>
		<rect x="-5" y="27" transform="matrix(0.7071 -0.7071 0.7071 0.7071 -11.1776 26.9853)" class="st1" width="64" height="0"/>
		<polygon class="st2" points="51.6,2.3 52,2 50,0 49.6,0.3 49.6,2.3 		"/>
		<polygon class="st2" points="0.3,49.6 0,50 2,52 2.3,51.6 2.3,49.6 		"/>
		<polygon class="st2" points="2.3,47.6 0.3,49.6 2.3,49.6 		"/>
		<polygon class="st2" points="49.6,2.3 49.6,0.3 47.6,2.3 		"/>
		<polygon class="st2" points="2.3,49.6 2.3,51.6 4.3,49.6 		"/>
		<polygon class="st2" points="49.6,4.3 51.6,2.3 49.6,2.3 		"/>
		<polygon class="st2" points="47.6,2.3 2.3,47.6 2.3,49.6 4.3,49.6 49.6,4.3 49.6,2.3 		"/>
	</g>
</g>
</svg>
